<svg xmlns="http://www.w3.org/2000/svg" xmlns:xlink="http://www.w3.org/1999/xlink" width="50" zoomAndPan="magnify" viewBox="0 0 37.5 37.499999" height="50" preserveAspectRatio="xMidYMid meet" version="1.0"><defs><clipPath id="6f4a3d4a1d"><path d="M 8 0.503906 L 28 0.503906 L 28 36.769531 L 8 36.769531 Z M 8 0.503906 " clip-rule="nonzero"/></clipPath></defs><path fill="#4e7896" d="M 15.34375 19.734375 C 15.34375 19.734375 14.394531 20.316406 16.003906 20.484375 C 17.945312 20.734375 18.980469 20.691406 21.128906 20.277344 C 21.128906 20.277344 21.707031 20.648438 22.492188 20.941406 C 17.65625 23.015625 11.542969 20.816406 15.34375 19.734375 Z M 14.722656 17.035156 C 14.722656 17.035156 13.691406 17.824219 15.300781 17.992188 C 17.410156 18.199219 19.0625 18.242188 21.914062 17.660156 C 21.914062 17.660156 22.285156 18.074219 22.90625 18.28125 C 17.078125 20.027344 10.550781 18.449219 14.722656 17.035156 Z M 26.128906 21.769531 C 26.128906 21.769531 26.828125 22.351562 25.34375 22.808594 C 22.574219 23.640625 13.730469 23.890625 11.253906 22.808594 C 10.386719 22.433594 12.039062 21.894531 12.574219 21.8125 C 13.113281 21.6875 13.402344 21.6875 13.402344 21.6875 C 12.453125 21.023438 7.078125 23.058594 10.675781 23.640625 C 20.550781 25.261719 28.6875 22.933594 26.128906 21.769531 Z M 15.796875 14.210938 C 15.796875 14.210938 11.292969 15.289062 14.1875 15.664062 C 15.425781 15.832031 17.863281 15.789062 20.136719 15.621094 C 21.996094 15.457031 23.855469 15.125 23.855469 15.125 C 23.855469 15.125 23.195312 15.414062 22.738281 15.707031 C 18.152344 16.910156 9.351562 16.371094 11.871094 15.125 C 14.019531 14.085938 15.796875 14.210938 15.796875 14.210938 Z M 23.855469 18.738281 C 28.480469 16.328125 26.332031 14.003906 24.847656 14.292969 C 24.476562 14.375 24.308594 14.460938 24.308594 14.460938 C 24.308594 14.460938 24.433594 14.210938 24.722656 14.128906 C 27.65625 13.089844 29.96875 17.242188 23.773438 18.863281 C 23.773438 18.863281 23.8125 18.820312 23.855469 18.738281 Z M 16.253906 25.300781 C 20.714844 25.59375 27.53125 25.136719 27.699219 23.015625 C 27.699219 23.015625 27.367188 23.847656 24.019531 24.46875 C 20.21875 25.175781 15.507812 25.09375 12.742188 24.636719 C 12.742188 24.636719 13.320312 25.136719 16.253906 25.300781 Z M 16.253906 25.300781 " fill-opacity="1" fill-rule="nonzero"/><g clip-path="url(#6f4a3d4a1d)"><path fill="#f58219" d="M 21.046875 0.503906 C 21.046875 0.503906 23.605469 3.121094 18.605469 7.066406 C 14.597656 10.265625 17.699219 12.09375 18.605469 14.167969 C 16.253906 12.050781 14.558594 10.179688 15.714844 8.4375 C 17.410156 5.863281 22.078125 4.617188 21.046875 0.503906 Z M 19.722656 12.425781 C 20.921875 13.796875 19.394531 15.042969 19.394531 15.042969 C 19.394531 15.042969 22.449219 13.464844 21.046875 11.511719 C 19.765625 9.640625 18.773438 8.726562 24.144531 5.613281 C 24.144531 5.613281 15.675781 7.730469 19.722656 12.425781 Z M 16.664062 34.730469 L 16.664062 30.660156 C 16.664062 29.621094 16.085938 28.914062 14.640625 28.914062 C 13.816406 28.914062 13.113281 29.121094 12.492188 29.371094 L 12.699219 30.117188 C 13.152344 29.953125 13.730469 29.785156 14.351562 29.785156 C 15.136719 29.785156 15.507812 30.117188 15.507812 30.785156 L 15.507812 31.324219 L 15.09375 31.324219 C 13.113281 31.324219 12.203125 32.070312 12.203125 33.277344 C 12.203125 34.273438 12.824219 34.855469 13.9375 34.855469 C 14.640625 34.855469 15.179688 34.523438 15.675781 34.105469 L 15.757812 34.730469 Z M 15.507812 33.402344 C 15.09375 33.773438 14.640625 33.984375 14.226562 33.984375 C 13.691406 33.984375 13.359375 33.648438 13.359375 33.070312 C 13.359375 32.488281 13.691406 32.070312 15.011719 32.070312 L 15.507812 32.070312 Z M 20.550781 34.730469 L 19.101562 34.730469 L 17.367188 29.039062 L 18.609375 29.039062 L 19.683594 32.527344 L 19.929688 33.566406 C 20.46875 32.070312 20.878906 30.535156 21.046875 29.039062 L 22.285156 29.039062 C 21.953125 30.910156 21.375 32.945312 20.550781 34.730469 Z M 27.242188 34.730469 L 27.242188 30.660156 C 27.242188 29.621094 26.664062 28.914062 25.21875 28.914062 C 24.390625 28.914062 23.691406 29.121094 23.070312 29.371094 L 23.234375 30.117188 C 23.730469 29.953125 24.308594 29.785156 24.929688 29.785156 C 25.714844 29.785156 26.085938 30.117188 26.085938 30.785156 L 26.085938 31.324219 L 25.671875 31.324219 C 23.691406 31.324219 22.78125 32.070312 22.78125 33.277344 C 22.78125 34.273438 23.359375 34.855469 24.472656 34.855469 C 25.21875 34.855469 25.753906 34.523438 26.25 34.105469 L 26.332031 34.730469 Z M 26.085938 33.402344 C 25.671875 33.773438 25.21875 33.984375 24.804688 33.984375 C 24.269531 33.984375 23.9375 33.648438 23.9375 33.070312 C 23.9375 32.488281 24.269531 32.070312 25.589844 32.070312 L 26.085938 32.070312 Z M 10.921875 35.6875 C 10.59375 36.183594 10.097656 36.558594 9.476562 36.765625 L 8.9375 36.101562 C 9.351562 35.851562 9.765625 35.480469 9.929688 35.144531 C 10.097656 34.855469 10.136719 34.441406 10.136719 33.484375 L 10.136719 27.003906 L 11.378906 27.003906 L 11.378906 33.402344 C 11.378906 34.6875 11.253906 35.1875 10.921875 35.6875 Z M 10.921875 35.6875 " fill-opacity="1" fill-rule="nonzero"/></g></svg>