<svg xmlns="http://www.w3.org/2000/svg" xmlns:xlink="http://www.w3.org/1999/xlink" width="50" zoomAndPan="magnify" viewBox="0 0 37.5 37.499999" height="50" preserveAspectRatio="xMidYMid meet" version="1.0"><defs><clipPath id="fbef332b3e"><path d="M 5.253906 3.699219 L 31.898438 3.699219 L 31.898438 33.304688 L 5.253906 33.304688 Z M 5.253906 3.699219 " clip-rule="nonzero"/></clipPath></defs><g clip-path="url(#fbef332b3e)"><path fill="#0277bd" d="M 31.898438 3.699219 L 5.257812 3.699219 L 7.609375 30.191406 L 18.578125 33.304688 L 29.546875 30.191406 Z M 31.898438 3.699219 " fill-opacity="1" fill-rule="nonzero"/></g><path fill="#039be5" d="M 18.578125 6.039062 L 18.578125 30.890625 L 27.351562 28.398438 L 29.3125 6.039062 Z M 18.578125 6.039062 " fill-opacity="1" fill-rule="nonzero"/><path fill="#ffffff" d="M 25.707031 9.933594 L 18.578125 9.933594 L 18.578125 13.050781 L 22.417969 13.050781 L 22.179688 16.167969 L 18.578125 16.167969 L 18.578125 19.28125 L 22.023438 19.28125 L 21.789062 22.789062 L 18.578125 23.878906 L 18.578125 27.152344 L 24.765625 25.125 L 25.316406 16.167969 Z M 25.707031 9.933594 " fill-opacity="1" fill-rule="nonzero"/><path fill="#eeeeee" d="M 18.578125 9.933594 L 18.578125 13.050781 L 11.605469 13.050781 L 11.367188 9.933594 Z M 14.972656 16.167969 L 15.128906 19.28125 L 18.578125 19.28125 L 18.578125 16.167969 Z M 15.285156 20.839844 L 12.152344 20.839844 L 12.386719 25.125 L 18.578125 27.152344 L 18.578125 23.878906 L 15.363281 22.789062 Z M 15.285156 20.839844 " fill-opacity="1" fill-rule="nonzero"/></svg>